<?xml version="1.0" standalone="no"?>
<!DOCTYPE svg PUBLIC "-//W3C//DTD SVG 20010904//EN"
 "http://www.w3.org/TR/2001/REC-SVG-20010904/DTD/svg10.dtd">
<svg version="1.0" xmlns="http://www.w3.org/2000/svg"
 width="640.000000pt" height="640.000000pt" viewBox="0 0 640.000000 640.000000"
 preserveAspectRatio="xMidYMid meet">

<g transform="translate(0.000000,640.000000) scale(0.100000,-0.100000)"
fill="#000000" stroke="none">
<path d="M4812 5584 c-35 -24 -48 -59 -77 -204 -86 -435 -212 -784 -390 -1085
-102 -171 -268 -385 -301 -385 -17 0 -23 92 -34 535 -12 476 -22 602 -60 752
-61 239 -166 374 -294 373 -112 -1 -172 -84 -206 -285 -41 -248 -54 -481 -55
-975 0 -649 14 -804 170 -1864 52 -355 50 -347 116 -525 76 -203 81 -210 148
-213 55 -2 87 28 107 102 9 30 29 94 44 141 57 173 76 344 96 874 3 94 1 275
-6 404 -8 157 -8 237 -1 244 18 18 142 20 214 3 122 -29 208 -89 253 -179 50
-97 117 -425 148 -717 4 -30 13 -206 21 -390 21 -474 57 -638 145 -669 42 -14
93 7 113 46 35 68 99 782 100 1103 0 193 -2 229 -27 355 -33 174 -75 303 -134
420 -56 109 -183 245 -272 291 -67 35 -140 64 -160 64 -8 0 -34 9 -58 20 l-43
19 16 32 c9 17 39 62 66 100 153 214 299 533 408 888 57 186 72 274 78 472 5
155 4 180 -12 213 -25 53 -71 69 -113 40z"/>
<path d="M2328 5156 c-106 -38 -265 -183 -365 -332 -168 -253 -344 -680 -443
-1074 -17 -69 -38 -132 -46 -141 -8 -9 -57 -31 -107 -49 -126 -44 -219 -94
-240 -129 -24 -41 -21 -78 7 -106 29 -29 67 -28 182 5 118 34 127 29 114 -60
-7 -51 -15 -131 -40 -395 -17 -184 -33 -502 -28 -577 8 -124 63 -218 141 -239
59 -16 113 -2 159 39 68 61 90 124 112 312 14 119 22 196 47 480 24 279 71
589 91 601 16 10 123 35 296 69 178 35 342 74 426 101 33 10 69 19 82 19 26 0
31 -10 73 -190 85 -362 143 -649 176 -870 9 -58 27 -163 41 -235 55 -296 63
-320 117 -339 32 -12 73 7 83 38 27 81 -34 490 -182 1221 -19 94 -50 249 -69
345 -38 190 -48 241 -124 615 -75 370 -139 614 -191 731 -65 143 -185 205
-312 160z m121 -294 c43 -84 123 -390 207 -792 7 -36 19 -81 25 -102 6 -20 9
-48 5 -62 -6 -25 -9 -26 -79 -26 -87 0 -166 -15 -400 -75 -219 -55 -227 -56
-227 -12 0 46 122 522 165 645 95 274 227 494 278 465 4 -2 16 -21 26 -41z"/>
</g>
</svg>
